<svg width="40" height="35" viewBox="0 0 50 44" fill="none" xmlns="http://www.w3.org/2000/svg">
<path d="M1.99719 42H47.9972M5.53565 2V42M30.3049 2V42M44.4587 12V42M12.6126 10.3333H14.3818M12.6126 17H14.3818M12.6126 23.6667H14.3818M21.4587 10.3333H23.228M21.4587 17H23.228M21.4587 23.6667H23.228M12.6126 42V34.5C12.6126 33.12 13.8015 32 15.2664 32H20.5741C22.039 32 23.228 33.12 23.228 34.5V42M3.76642 2H32.0741M30.3049 12H46.228M37.3818 20.3333H37.4007V20.3511H37.3818V20.3333ZM37.3818 27H37.4007V27.0178H37.3818V27ZM37.3818 33.6667H37.4007V33.6844H37.3818V33.6667Z" stroke="#444240" stroke-width="3" stroke-linecap="round" stroke-linejoin="round"/>
</svg>
