<svg width="37" height="35" viewBox="0 0 44 40" fill="none" xmlns="http://www.w3.org/2000/svg">
<path d="M41.8472 0H3.14719C2.57718 0.000712543 2.03071 0.244072 1.62765 0.676694C1.22459 1.10932 0.997856 1.69587 0.997192 2.30769V37.6923C0.997856 38.3041 1.22459 38.8907 1.62765 39.3233C2.03071 39.7559 2.57718 39.9993 3.14719 40H11.0305V34.344C11.0307 34.0012 11.1162 33.6647 11.2781 33.3692C11.4401 33.0737 11.6727 32.8301 11.9518 32.6635L20.1916 27.7478L17.4805 20.473V14.6154C17.4805 13.1873 18.0091 11.8177 18.9499 10.8079C19.8907 9.79808 21.1667 9.23077 22.4972 9.23077C23.8277 9.23077 25.1037 9.79808 26.0445 10.8079C26.9853 11.8177 27.5139 13.1873 27.5139 14.6154V20.473L24.8028 27.7475L33.0426 32.6635C33.3217 32.8301 33.5543 33.0738 33.7162 33.3692C33.8782 33.6647 33.9637 34.0012 33.9639 34.344V40H41.8472C42.4172 39.9993 42.9637 39.7559 43.3667 39.3233C43.7698 38.8907 43.9965 38.3041 43.9972 37.6923V2.30769C43.9965 1.69587 43.7698 1.10932 43.3667 0.676694C42.9637 0.244072 42.4172 0.000712543 41.8472 0ZM41.1305 36.9231H36.8305V34.344C36.8303 33.4526 36.6081 32.5774 36.187 31.809C35.7658 31.0407 35.1611 30.4071 34.4352 29.9737L28.4021 26.375L30.3805 21.0655V14.6154C30.3805 12.3712 29.55 10.219 28.0716 8.63217C26.5931 7.04533 24.588 6.15385 22.4972 6.15385C20.4064 6.15385 18.4012 7.04533 16.9228 8.63217C15.4444 10.219 14.6139 12.3712 14.6139 14.6154V21.0655L16.5923 26.375L10.5591 29.9742C9.83338 30.4075 9.22866 31.041 8.80754 31.8093C8.38642 32.5776 8.1642 33.4527 8.16386 34.344V36.9231H3.86386V3.07692H41.1305V36.9231Z" fill="#444240"/>
</svg>
