<svg width="37" height="35" viewBox="0 0 43 40" fill="none" xmlns="http://www.w3.org/2000/svg">
<path d="M20.5486 39.6083C20.6734 39.7325 20.8217 39.831 20.985 39.8982C21.1482 39.9654 21.3233 40 21.5 40C21.6767 40 21.8518 39.9654 22.015 39.8982C22.1783 39.831 22.3266 39.7325 22.4514 39.6083L27.4313 34.6646H37.625C39.0505 34.6646 40.4177 34.1027 41.4257 33.1026C42.4337 32.1025 43 30.746 43 29.3316V5.33302C43 3.91861 42.4337 2.56214 41.4257 1.562C40.4177 0.56187 39.0505 0 37.625 0H5.375C3.94946 0 2.58231 0.56187 1.5743 1.562C0.566293 2.56214 0 3.91861 0 5.33302L0 29.3316C0 30.746 0.566293 32.1025 1.5743 33.1026C2.58231 34.1027 3.94946 34.6646 5.375 34.6646H15.5687L20.5486 39.6083ZM2.6875 21.3321V13.3325H40.3125V21.3321H2.6875ZM40.3125 23.9986V29.3316C40.3125 30.0388 40.0294 30.717 39.5253 31.2171C39.0213 31.7172 38.3378 31.9981 37.625 31.9981H27.4313C26.7186 31.9982 26.0351 32.2793 25.5312 32.7794L21.5 36.7791L17.4688 32.7794C16.9649 32.2793 16.2814 31.9982 15.5687 31.9981H5.375C4.66223 31.9981 3.97865 31.7172 3.47465 31.2171C2.97065 30.717 2.6875 30.0388 2.6875 29.3316V23.9986H40.3125ZM40.3125 10.666H2.6875V5.33302C2.6875 4.62581 2.97065 3.94758 3.47465 3.44751C3.97865 2.94744 4.66223 2.66651 5.375 2.66651H37.625C38.3378 2.66651 39.0213 2.94744 39.5253 3.44751C40.0294 3.94758 40.3125 4.62581 40.3125 5.33302V10.666ZM5.375 27.9983C5.375 28.3519 5.51657 28.6911 5.76858 28.9411C6.02058 29.1911 6.36237 29.3316 6.71875 29.3316H28.2188C28.5751 29.3316 28.9169 29.1911 29.1689 28.9411C29.4209 28.6911 29.5625 28.3519 29.5625 27.9983C29.5625 27.6447 29.4209 27.3056 29.1689 27.0556C28.9169 26.8055 28.5751 26.6651 28.2188 26.6651H6.71875C6.36237 26.6651 6.02058 26.8055 5.76858 27.0556C5.51657 27.3056 5.375 27.6447 5.375 27.9983ZM5.375 17.3323C5.375 17.6859 5.51657 18.025 5.76858 18.2751C6.02058 18.5251 6.36237 18.6656 6.71875 18.6656H36.2812C36.6376 18.6656 36.9794 18.5251 37.2314 18.2751C37.4834 18.025 37.625 17.6859 37.625 17.3323C37.625 16.9787 37.4834 16.6396 37.2314 16.3895C36.9794 16.1395 36.6376 15.999 36.2812 15.999H6.71875C6.36237 15.999 6.02058 16.1395 5.76858 16.3895C5.51657 16.6396 5.375 16.9787 5.375 17.3323ZM5.375 6.66627C5.375 7.01987 5.51657 7.35899 5.76858 7.60902C6.02058 7.85906 6.36237 7.99952 6.71875 7.99952H22.8438C23.2001 7.99952 23.5419 7.85906 23.7939 7.60902C24.0459 7.35899 24.1875 7.01987 24.1875 6.66627C24.1875 6.31267 24.0459 5.97355 23.7939 5.72352C23.5419 5.47348 23.2001 5.33302 22.8438 5.33302H6.71875C6.36237 5.33302 6.02058 5.47348 5.76858 5.72352C5.51657 5.97355 5.375 6.31267 5.375 6.66627Z" fill="#444240"/>
</svg>
