<svg width="20" height="17" viewBox="0 0 20 17" fill="none" xmlns="http://www.w3.org/2000/svg">
<path d="M19.0145 3.24237C18.9051 3.09418 18.7289 3.00259 18.5375 2.99487L6.67419 2.5119C6.33381 2.49783 6.04936 2.74602 6.03481 3.06601C6.02035 3.38587 6.2827 3.65614 6.62146 3.66988L17.6817 4.12019L15.507 10.5285H5.82946L4.08107 1.53731C4.04264 1.34025 3.89939 1.17585 3.70183 1.10264L0.838271 0.0401357C0.52267 -0.0765644 0.166539 0.0698463 0.0425926 0.367559C-0.0811397 0.665433 0.073836 1.00199 0.389266 1.11906L2.93543 2.06377L4.71467 11.2128C4.7683 11.4879 5.0221 11.6876 5.31831 11.6876H5.61345L4.9395 13.4557C4.88309 13.6038 4.90633 13.7683 5.00233 13.897C5.0982 14.0257 5.25411 14.1022 5.42056 14.1022H5.89328C5.60036 14.4101 5.42056 14.8155 5.42056 15.2613C5.42056 16.2201 6.24654 17 7.26143 17C8.27633 17 9.10231 16.2201 9.10231 15.2613C9.10231 14.8156 8.92251 14.4101 8.62964 14.1022H12.6432C12.3502 14.4101 12.1704 14.8155 12.1704 15.2613C12.1704 16.2201 12.9962 17 14.0113 17C15.0264 17 15.8522 16.2201 15.8522 15.2613C15.8522 14.8156 15.6724 14.4101 15.3796 14.1022H15.9545C16.2369 14.1022 16.4658 13.886 16.4658 13.6193C16.4658 13.3525 16.2369 13.1363 15.9545 13.1363H6.14814L6.70034 11.6875H15.9544C16.2213 11.6875 16.4574 11.5246 16.5387 11.2849L19.0954 3.75061C19.1542 3.57865 19.124 3.39064 19.0145 3.24237ZM7.26148 16.0343C6.81025 16.0343 6.44329 15.6877 6.44329 15.2615C6.44329 14.8354 6.81025 14.4888 7.26148 14.4888C7.71271 14.4888 8.07963 14.8354 8.07963 15.2615C8.07963 15.6877 7.71271 16.0343 7.26148 16.0343ZM14.0113 16.0343C13.5601 16.0343 13.1931 15.6877 13.1931 15.2615C13.1931 14.8354 13.5601 14.4888 14.0113 14.4888C14.4625 14.4888 14.8294 14.8354 14.8294 15.2615C14.8294 15.6877 14.4625 16.0343 14.0113 16.0343Z" fill="#555248"/>
</svg>
